<?xml version="1.0" standalone="no"?>
<!DOCTYPE svg PUBLIC "-//W3C//DTD SVG 20010904//EN"
 "http://www.w3.org/TR/2001/REC-SVG-20010904/DTD/svg10.dtd">
<svg version="1.0" xmlns="http://www.w3.org/2000/svg"
 width="200.000000pt" height="200.000000pt" viewBox="0 0 200.000000 200.000000"
 preserveAspectRatio="xMidYMid meet">
<metadata>
Created by potrace 1.14, written by Peter Selinger 2001-2017
</metadata>
<g transform="translate(0.000000,200.000000) scale(0.100000,-0.100000)"
fill="#000000" stroke="none">
<path d="M0 1000 l0 -1000 1000 0 1000 0 0 1000 0 1000 -1000 0 -1000 0 0
-1000z m1087 829 c137 -32 214 -61 284 -107 135 -89 239 -223 289 -372 30 -90
37 -250 16 -349 -30 -143 -142 -324 -244 -395 -43 -29 -50 -40 -32 -51 13 -8
13 -58 -1 -72 -7 -7 3 -37 35 -102 27 -53 46 -104 46 -124 0 -37 -24 -77 -46
-77 -8 0 -14 -4 -14 -10 0 -17 -30 -11 -62 11 -20 14 -46 55 -77 118 -41 85
-49 96 -76 101 -23 4 -32 12 -39 35 l-9 30 -146 0 c-134 0 -152 2 -226 28
-148 53 -268 144 -349 265 -82 125 -119 246 -119 392 1 317 231 599 542 663
40 9 75 18 79 21 9 10 99 7 149 -5z"/>
<path d="M872 1775 c-498 -108 -682 -727 -323 -1085 129 -128 275 -190 453
-190 118 0 176 14 287 67 290 139 431 478 326 785 -105 305 -431 490 -743 423z
m230 -83 c62 -27 128 -94 163 -166 58 -119 41 -297 -44 -471 -84 -171 -208
-243 -320 -186 -50 26 -129 113 -168 187 -46 86 -83 222 -83 305 0 158 88 293
224 341 65 23 163 19 228 -10z m406 -297 c59 -145 64 -275 17 -421 -28 -89
-71 -162 -87 -146 -6 6 -1 24 16 50 51 81 70 157 70 282 0 101 -3 124 -28 190
-40 109 -41 113 -25 108 8 -2 25 -31 37 -63z m-678 -544 c0 -52 -10 -61 -72
-61 -36 0 -41 -12 -23 -57 34 -82 119 -144 217 -158 101 -15 225 54 269 150
25 53 24 65 -5 65 -13 0 -38 3 -55 6 -31 6 -32 8 -29 50 4 52 22 59 26 10 3
-33 4 -34 58 -41 64 -8 68 -20 30 -100 -89 -188 -337 -228 -479 -76 -45 48
-84 129 -74 155 4 9 26 18 55 22 49 6 50 7 56 45 9 55 26 48 26 -10z"/>
<path d="M865 1666 c-153 -72 -219 -247 -166 -439 40 -146 133 -292 213 -333
106 -55 236 40 307 225 41 106 53 162 52 250 0 225 -219 385 -406 297z"/>
<path d="M1268 510 c-58 -30 -78 -45 -78 -60 0 -35 25 -33 110 10 68 34 81 44
78 63 -5 33 -25 30 -110 -13z"/>
<path d="M1308 435 l-47 -25 40 -87 c22 -49 47 -96 56 -105 24 -27 69 -23 89
7 16 25 15 29 -31 130 -26 58 -51 105 -54 105 -3 -1 -27 -12 -53 -25z"/>
</g>
</svg>
