<svg xmlns="http://www.w3.org/2000/svg" viewBox="0 0 350.06907245024075 69.00952681553191" preserveAspectRatio="xMidYMid meet" class="css-zcsj26" id="adfffcha"><defs id="SvgjsDefs3240"/><g id="SvgjsG3241" featurekey="symbolFeature-0" transform="matrix(1.1760112835566876,0,0,1.1760112835566876,-4.725213485372962,-19.641742306248133)" fill="#b469ff"><g xmlns="http://www.w3.org/2000/svg"><g><line fill="none" stroke="#b469ff" stroke-linecap="round" stroke-miterlimit="10" x1="42.103" y1="49.798" x2="42.058" y2="52.711"/><line fill="none" stroke="#b469ff" stroke-linecap="round" stroke-miterlimit="10" x1="53.844" y1="50.184" x2="53.868" y2="52.711"/><path fill="none" stroke="#b469ff" stroke-linecap="round" stroke-miterlimit="10" d="M37.932,53.381    c0.585,4.779,4.89,8.49,10.114,8.49c5.138,0,9.207-3.931,9.903-8.596"/><line fill="#b469ff" stroke="#b469ff" stroke-miterlimit="10" x1="58.001" y1="53.275" x2="53.868" y2="52.711"/><line fill="#b469ff" stroke="#b469ff" stroke-linecap="round" stroke-miterlimit="10" x1="37.932" y1="53.314" x2="41.913" y2="52.711"/><path fill="none" stroke="#b469ff" stroke-linecap="round" stroke-miterlimit="10" d="M36.454,32.839    c0-6.863,5.047-12.426,11.273-12.426S59,25.976,59,32.839S54.175,50.92,47.949,50.92S36.454,39.702,36.454,32.839z"/><line fill="none" stroke="#b469ff" stroke-width="0.9657" stroke-linecap="round" stroke-miterlimit="10" x1="8.213" y1="47.78" x2="8.18" y2="49.798"/><line fill="none" stroke="#b469ff" stroke-width="0.9657" stroke-linecap="round" stroke-miterlimit="10" x1="16.934" y1="48.048" x2="16.951" y2="49.798"/><path fill="none" stroke="#b469ff" stroke-linecap="round" stroke-miterlimit="10" d="M5.116,50.296    c0.435,3.55,3.632,6.305,7.512,6.305c3.816,0,6.838-2.92,7.355-6.384"/><line fill="#b469ff" stroke="#b469ff" stroke-linecap="round" stroke-miterlimit="10" x1="20.021" y1="50.217" x2="16.951" y2="49.798"/><line fill="#b469ff" stroke="#b469ff" stroke-linecap="round" stroke-miterlimit="10" x1="5.116" y1="50.246" x2="8.072" y2="49.798"/><path fill="none" stroke="#b469ff" stroke-linecap="round" stroke-miterlimit="10" d="M4.018,35.039    c0-5.097,3.749-9.229,8.373-9.229s8.373,4.132,8.373,9.229s-3.584,13.429-8.208,13.429S4.018,40.136,4.018,35.039z"/><line fill="none" stroke="#b469ff" stroke-width="0.9456" stroke-linecap="round" stroke-miterlimit="10" x1="81.88" y1="48.086" x2="81.846" y2="50.021"/><line fill="none" stroke="#b469ff" stroke-width="0.9456" stroke-linecap="round" stroke-miterlimit="10" x1="90.6" y1="48.343" x2="90.618" y2="50.021"/><path fill="none" stroke="#b469ff" stroke-linecap="round" stroke-miterlimit="10" d="M78.782,50.519    c0.435,3.55,3.632,6.305,7.512,6.305c3.816,0,6.838-2.92,7.355-6.384"/><line fill="#b469ff" stroke="#b469ff" stroke-linecap="round" stroke-miterlimit="10" x1="93.688" y1="50.44" x2="90.618" y2="50.021"/><line fill="#b469ff" stroke="#b469ff" stroke-linecap="round" stroke-miterlimit="10" x1="78.782" y1="50.469" x2="81.739" y2="50.021"/><path fill="none" stroke="#b469ff" stroke-linecap="round" stroke-miterlimit="10" d="M77.684,35.262    c0-5.097,3.749-9.229,8.373-9.229c4.624,0,8.373,4.132,8.373,9.229s-3.584,13.429-8.208,13.429    C81.598,48.691,77.684,40.359,77.684,35.262z"/><circle fill="none" stroke="#b469ff" stroke-width="1.5" stroke-linecap="round" stroke-miterlimit="10" cx="48.766" cy="40.754" r="24.052"/><path fill="none" stroke="#b469ff" stroke-linecap="round" stroke-miterlimit="10" d="M62.058,64.8l3.223,6.774    c0.656,1.29,0.141,2.868-1.149,3.524l0,0c-1.29,0.656-2.868,0.141-3.524-1.149l-3.223-6.774"/><path fill="none" stroke="#b469ff" stroke-linecap="round" stroke-miterlimit="10" d="M58.24,69.61"/><path fill="none" stroke="#b469ff" stroke-linecap="round" stroke-miterlimit="10" d="M62.81,62.594    c0.326,0.667,0.124,1.455-0.442,1.891c-0.081,0.062-0.169,0.117-0.265,0.164l-4.822,2.353l-0.226,0.11    c-0.763,0.372-1.682,0.056-2.055-0.707l0,0c-0.372-0.763-0.056-1.682,0.707-2.055l5.048-2.463    C61.518,61.515,62.438,61.831,62.81,62.594L62.81,62.594z"/><path fill="none" stroke="#b469ff" stroke-linecap="round" stroke-miterlimit="10" d="M65.486,29.673    c0.746,1.327,1.359,2.755,1.819,4.271c1.908,6.299,0.751,12.797-2.615,17.89"/><path fill="none" stroke="#b469ff" stroke-linecap="round" stroke-miterlimit="10" d="M100,54.893"/></g></g></g><g id="SvgjsG3242" featurekey="nameFeature-0" transform="matrix(0.36285902514797597,0,0,0.36285902514797597,131.10068660906435,27.546352856106484)" fill="#b469ff"><path d="M24.922 1.4059999999999988 c-2.8646 0 -5.5209 0.4686 -7.9688 1.4061 c-2.3959 0.9375 -4.4792 2.2396 -6.2501 3.9063 c-1.7188 1.5625 -3.0729 3.5416 -4.0625 5.9375 c-0.83336 2.0313 -1.3021 4.2448 -1.4063 6.6406 l0 2.3438 l6.875 0 l0 -2.3438 c0.10414 -1.7709 0.39063 -3.2031 0.85938 -4.2969 c0.625 -1.5104 1.4844 -2.8645 2.5781 -4.0624 c1.3021 -1.1979 2.6563 -2.0833 4.0625 -2.6562 c1.6146 -0.625 3.3855 -0.9375 5.3126 -0.9375 l9.8438 0 l0 -5.9375 l-9.8438 0 z M27.891 18.984 l0.000076294 1.4843 l0.078125 0 c-0.10414 1.6666 -0.41664 3.2031 -0.9375 4.6094 c-0.67711 1.6146 -1.5365 2.9427 -2.5781 3.9844 c-1.1459 1.1459 -2.5 2.0313 -4.0625 2.6563 c-1.6146 0.625 -3.3855 0.9375 -5.3126 0.9375 l-9.8438 0 l0 5.9375 l9.8438 0 c2.8646 0 5.5209 -0.46875 7.9688 -1.4063 c2.3959 -0.9375 4.4792 -2.2396 6.2501 -3.9063 c1.8229 -1.8229 3.177 -3.802 4.0624 -5.9374 c0.9375 -2.0834 1.4063 -4.375 1.4063 -6.875 l0 -1.4844 l-6.875 0 z M48.5 1.4059999999999988 l-6.0156 0 l7.5781 37.188 l6.5625 0 l-4.8438 -22.891 z M73.813 1.4059999999999988 l-4.375 15.547 l2.9688 11.328 l7.1875 -26.875 l-5.7813 0 z M64.35900000000001 12.812000000000001 l-0.46875 -1.9531 l-2.5 -9.4531 l-3.3594 11.094 l-0.15625 0.3125 l-1.25 4.375 l2.3438 10.469 l1.4844 -5.1563 l3.8281 16.094 l6.6406 0 l-5.7813 -22.891 z M88.0938 1.4059999999999988 l27.813 0 l0 5.9375 l-27.813 0 l0 -5.9375 z M88.0938 32.6562 l27.734 0 l0 5.9375 l-27.734 0 l0 -5.9375 z M88.0938 16.875 l25.078 0 l0 5.8594 l-25.078 0 l0 -5.8594 z M129.0938 1.4059999999999988 l27.813 0 l0 5.9375 l-27.813 0 l0 -5.9375 z M129.0938 32.6562 l27.734 0 l0 5.9375 l-27.734 0 l0 -5.9375 z M129.0938 16.875 l25.078 0 l0 5.8594 l-25.078 0 l0 -5.8594 z M187.281 7.5 l11.797 0 l0 -6.0938 l-30.156 0 l0 6.0938 l18.359 0 z M180.719 13.594000000000001 l6.5625 0 l0 25 l-6.5625 0 l0 -25 z M229.922 1.4059999999999988 c-2.8646 0 -5.5209 0.4686 -7.9688 1.4061 c-2.3959 0.9375 -4.4792 2.2396 -6.2501 3.9063 c-1.7188 1.5625 -3.0729 3.5416 -4.0625 5.9375 c-0.83336 2.0313 -1.3021 4.2448 -1.4063 6.6406 l0 2.3438 l6.875 0 l0 -2.3438 c0.10414 -1.7709 0.39063 -3.2031 0.85938 -4.2969 c0.625 -1.5104 1.4844 -2.8645 2.5781 -4.0624 c1.3021 -1.1979 2.6563 -2.0833 4.0625 -2.6562 c1.6146 -0.625 3.3855 -0.9375 5.3126 -0.9375 l9.8438 0 l0 -5.9375 l-9.8438 0 z M232.891 18.984 l0.000076294 1.4843 l0.078125 0 c-0.10414 1.6666 -0.41664 3.2031 -0.9375 4.6094 c-0.67711 1.6146 -1.5365 2.9427 -2.5781 3.9844 c-1.1459 1.1459 -2.5 2.0313 -4.0625 2.6563 c-1.6146 0.625 -3.3855 0.9375 -5.3126 0.9375 l-9.8438 0 l0 5.9375 l9.8438 0 c2.8646 0 5.5209 -0.46875 7.9688 -1.4063 c2.3959 -0.9375 4.4792 -2.2396 6.2501 -3.9063 c1.8229 -1.8229 3.177 -3.802 4.0624 -5.9374 c0.9375 -2.0834 1.4063 -4.375 1.4063 -6.875 l0 -1.4844 l-6.875 0 z M279.438 8.75 c-0.67711 -1.4584 -1.6147 -2.7605 -2.8126 -3.9063 c-1.25 -1.0938 -2.7344 -1.9531 -4.4531 -2.5781 c-1.875 -0.57289 -3.8541 -0.85938 -5.9375 -0.85938 l-14.609 0 l0 5.8594 l14.063 0 c2.3438 0 4.2969 0.57289 5.8594 1.7188 c1.4584 1.0938 2.1875 2.7604 2.1875 5 c0 2.0313 -0.70313 3.6719 -2.1094 4.9219 c-1.5104 1.1979 -3.4895 1.7969 -5.9374 1.7969 l-14.063 0 l0 17.891 l6.4844 0 l0 -11.953 l7.3438 0 c1.9271 0 3.8802 -0.28648 5.8594 -0.85938 c1.8229 -0.57289 3.3854 -1.3802 4.6875 -2.4218 c1.3541 -1.0416 2.4219 -2.3698 3.2031 -3.9844 c0.78125 -1.5625 1.1719 -3.3854 1.1719 -5.4688 c0 -1.9791 -0.3125 -3.6979 -0.9375 -5.1563 z M304.344 32.6562 c-0.78125 -0.15625 -1.5105 -0.3907 -2.1876 -0.7032 c-1.4584 -0.67711 -2.7344 -1.6146 -3.8281 -2.8125 c-1.0416 -1.0938 -1.875 -2.4479 -2.5 -4.0625 c-0.57289 -1.6146 -0.85938 -3.2552 -0.85938 -4.9219 l0 -0.15625 l0 -0.23438 c0 -1.7188 0.28648 -3.3854 0.85938 -5 c0.67711 -1.6666 1.5105 -2.9948 2.5001 -3.9844 c1.0416 -1.1979 2.2916 -2.1094 3.75 -2.7344 c0.88539 -0.41664 1.6406 -0.67703 2.2656 -0.78117 l0 -5.8594 c-1.8229 0.26039 -3.4375 0.70313 -4.8438 1.3281 c-2.2916 0.98961 -4.2448 2.3177 -5.8594 3.9844 s-2.8906 3.6458 -3.8281 5.9374 s-1.4063 4.6875 -1.4063 7.1875 l0 0.15625 l0 0.23438 c0 2.5521 0.46875 4.948 1.4063 7.1876 c0.83336 2.2396 2.0834 4.1927 3.75 5.8594 c1.6666 1.7188 3.6198 3.0469 5.8594 3.9844 c1.4063 0.625 3.0469 1.0677 4.9219 1.3281 l0 -5.9375 z M325.594 20 l0.000076294 -0.23438 c0 -2.5521 -0.46875 -4.948 -1.4063 -7.1876 c-0.9375 -2.2916 -2.2135 -4.2708 -3.8281 -5.9374 c-1.5625 -1.6666 -3.4896 -2.9688 -5.7813 -3.9063 c-1.3021 -0.625 -2.8906 -1.0677 -4.7656 -1.3281 l0 5.9375 l0.9375 0.3125 c0.46875 0.15625 0.83336 0.28648 1.0938 0.39063 c1.4584 0.67711 2.7344 1.6146 3.8281 2.8125 c1.0416 1.0938 1.875 2.4479 2.5 4.0625 c0.57289 1.6146 0.85938 3.2552 0.85938 4.9219 l0 0.15625 l0 0.23438 c0 1.7188 -0.28648 3.3854 -0.85938 5 c-0.67711 1.6666 -1.5105 2.9948 -2.5001 3.9844 c-1.0416 1.1979 -2.2916 2.1094 -3.75 2.7344 c-0.67711 0.3125 -1.3802 0.54688 -2.1094 0.70313 l0 5.9375 c1.5625 -0.20836 3.125 -0.65109 4.6875 -1.3282 c2.1354 -0.88539 4.0885 -2.2135 5.8594 -3.9844 c1.7188 -1.8229 2.9948 -3.802 3.8281 -5.9374 c0.9375 -2.2916 1.4063 -4.6875 1.4063 -7.1875 l0 -0.15625 z M351.281 7.5 l11.797 0 l0 -6.0938 l-30.156 0 l0 6.0938 l18.359 0 z M344.719 13.594000000000001 l6.5625 0 l0 25 l-6.5625 0 l0 -25 z  M433.67175 38.5937 l6.5625 0 l0 -27.422 l-6.5625 9.6094 l0 17.813 z M440.23475 1.4059999999999988 l-7.0313 0 l-11.484 17.813 l-11.406 -17.813 l-7.0313 0 l0 37.188 l6.5625 0 l0 -26.406 l11.719 17.578 l0.23438 0 l10.234 -15.156 c0.052109 -0.20836 2.7865 -4.6094 8.2031 -13.203 z M465.99975 16.875 l0 -15.547 l-6.5625 0 l0 37.344 l6.5625 0 l0 -21.797 z M516.53175 27.344 c-0.98961 2.3959 -2.3438 4.375 -4.0625 5.9375 c-1.7709 1.6666 -3.8542 2.9688 -6.2501 3.9063 s-5.0781 1.4063 -8.0469 1.4063 l-8.6719 0 l0 -5.9375 l8.5938 0 c1.9791 0 3.776 -0.3125 5.3906 -0.9375 c1.5625 -0.625 2.9166 -1.5104 4.0625 -2.6563 s2.0313 -2.5 2.6563 -4.0625 s0.9375 -3.2813 0.9375 -5.1563 c0 -1.8229 -0.3125 -3.5156 -0.9375 -5.0781 c-0.625 -1.6146 -1.5104 -2.9427 -2.6563 -3.9844 c-1.0416 -1.0938 -2.3958 -1.9791 -4.0624 -2.6563 c-1.6666 -0.625 -3.4635 -0.9375 -5.3906 -0.9375 l-8.5938 0 l0 -5.9375 l8.6719 0 c2.7604 0 5.4166 0.49477 7.9688 1.4844 c2.3959 0.88539 4.5052 2.2135 6.3281 3.9844 c1.7709 1.6146 3.125 3.5938 4.0625 5.9375 c0.98961 2.3959 1.4844 4.8438 1.4844 7.3438 c0 2.7084 -0.49477 5.1563 -1.4844 7.3438 z M547.99975 16.875 l0 -15.547 l-6.5625 0 l0 37.344 l6.5625 0 l0 -21.797 z M596.42175 38.5937 l7.0313 0 l-13.594 -37.266 l-7.1094 0 l7.8906 22.266 z M567.67185 38.5937 l6.875 0 l8.125 -19.844 l-3.3594 -8.9063 z"/></g></svg>